<svg version="1" xmlns="http://www.w3.org/2000/svg" width="933.333" height="933.333" viewBox="0 0 700.000000 700.000000"><path d="M537.2 125.3C510.7 151.8 489 174 489 174.5c0 .6 15.4 16.4 34.3 35.3l34.2 34.2 5.5-5.5 5.4-5.5 10.8 10.7c6 5.9 10.8 11.2 10.8 11.8 0 .6-2.2 3.3-5 6l-5 4.9 3.2 3.3 3.2 3.4 49.3-49.3 49.3-49.3-48.7-48.7C609.4 98.9 587.1 77 586.5 77c-.6 0-22.7 21.7-49.3 48.3z"/><path d="M639.5 231c-28.6 28.6-52.3 52-52.7 52-.4 0-3-2.5-5.9-5.5-2.8-3-5.7-5.5-6.3-5.5-.5 0-2.7 1.7-4.8 3.7l-3.8 3.7 6.5 6.6 6.5 6.6-50.1 49.9c-27.5 27.5-51.4 51.7-53.1 53.7l-3 3.8 3.4-.7c8.8-1.6 12.6-4.9 51.6-43.7 21.1-20.9 40.6-41 43.2-44.6 2.7-3.5 5.9-9.1 7.1-12.5 3.4-9.4 5.1-11.2 15.8-16.2l9.6-4.5 42.2-42.2c43-43 46.8-47.4 46.1-53.7-.3-2.7-3.8.5-52.3 49.1zM494.9 196.6l.3 4.7-3.6-.7c-2-.4-3.6-.3-3.6.1 0 .5 12.6 13.4 28 28.8l28 28 4-4 4-4-28.8-28.8-28.7-28.7.4 4.6z"/><path d="M420.7 243.8L372 292.5l49.3 49.3 49.2 49.2 49-49 49-49-3.8-3.7-3.7-3.8-23.5 23.5-23.5 23.5-20.5-20.5-20.5-20.5 10.7-10.7 10.8-10.8 9.2 9.2 9.3 9.3 12.8-12.8 12.7-12.7-34-34c-18.7-18.7-34.2-34-34.5-34-.3 0-22.4 21.9-49.3 48.8z"/><path d="M540.7 271.8L513 299.5l-9.3-9.3-9.3-9.2-5.4 5.5-5.5 5.5 14.5 14.5c8 8 14.9 14.5 15.5 14.5.6 0 15.8-14.7 33.8-32.8l32.7-32.7-5.8-5.8-5.7-5.7-27.8 27.8zM378.7 315.1l.6 4.1-4.2-.4c-4.1-.4-4.1-.3 40.1 43.9 24.4 24.4 44.4 44.3 44.5 44.3 0 0-.1-1.8-.4-4l-.6-4h3.7c2 0 3.6-.3 3.6-.8 0-.9-86.2-87.2-87.2-87.2-.3 0-.4 1.9-.1 4.1zM304.5 362l-49 49 33.7 33.7 33.8 33.8 4.7-4.8 4.8-4.7 11.2 11.2 11.3 11.2-4.7 4.8-4.7 4.8 4.2 4.3 4.2 4.2 49.3-49.3 49.2-49.2-49-49c-26.9-26.9-49.2-49-49.5-49-.3 0-22.6 22.1-49.5 49zM70.7 363.8L22 412.5l49 49 49 49 49-49 49-49-5-5-5-5-24 24-24 24-20.5-20.5-20.5-20.5 10.7-10.7 10.8-10.8 9.2 9.2 9.3 9.3 13.3-13.3 13.2-13.2-32.5-32.5c-17.9-17.9-32.7-32.5-33-32.5-.3 0-22.4 21.9-49.3 48.8z"/><path d="M186.7 389.8L159 417.5l-9.3-9.3-9.3-9.2-5.2 5.3-5.2 5.2 15 15 15 15 33-33 33-33-5.8-5.8-5.7-5.7-27.8 27.8zM223 387.5l-9.4 9.5 5.9 6 6 6.1.7-5.3c.4-2.9 2.1-8.4 3.8-12.1 2-4.5 3-8.1 2.8-10.3l-.3-3.5-9.5 9.6zM406.7 466.9l-53.2 53.2-6.9-7.1-6.9-7.1-3.9 3.8-3.8 3.7 7.5 7.6 7.5 7.5-52 52c-28.6 28.6-52 52.3-52 52.7 0 1.5 5.4.8 9.4-1.2 5.5-2.6 87.6-84.9 90.4-90.5 1-2.2 2.7-6.3 3.6-9.2 2.4-7.4 4.7-9.7 12.2-12.7 3.7-1.5 8.8-4.1 11.3-5.8 5.5-3.7 78.4-76 84.3-83.6 3.7-4.8 7.6-14.7 6.3-16.1-.3-.2-24.5 23.5-53.8 52.8zM175.2 466.3c-28.2 28.2-51 51.6-50.6 52 .4.4 3.7.7 7.3.7h6.5l43.9-43.8c24.1-24 44-44.6 44.3-45.7.3-1.1.4-4.9.2-8.3l-.3-6.2-51.3 51.3zM259.8 430.1c-.2 2.5-.8 3.5-2.3 3.7-1.1.2-2.3.7-2.7 1.1-.4.4 11.8 13.2 27.2 28.6l28 28 3.7-3.8 3.8-3.7-28.7-28.7c-28.5-28.5-28.6-28.6-29-25.2z"/><path d="M188.7 479.8L140 528.5l49 49 49 49 49-49 49-49-4.5-4.5-4.5-4.5-24.5 24.5-24.5 24.5-20.5-20.5-20.5-20.5 10.7-10.7 10.8-10.8 9.2 9.2 9.3 9.3 13.8-13.8 13.7-13.7-33-33c-18.1-18.1-33.2-33-33.5-33-.3 0-22.4 21.9-49.3 48.8z"/><path d="M304.7 507.8L277 535.5l-9.3-9.3-9.3-9.2-5.2 5.3-5.2 5.2 15 15 15 15 33-33c18.2-18.1 33-33.2 33-33.5 0-.3-2.6-2.9-5.8-5.7l-5.9-5.1-27.6 27.6z"/></svg>