<svg version="1" xmlns="http://www.w3.org/2000/svg" width="933.333" height="933.333" viewBox="0 0 700.000000 700.000000"><path d="M571.7 94.7c.3 1 26 27.3 57.2 58.5l56.6 56.8-56.6 56.7c-31.2 31.3-57.2 57.8-57.8 59-1.1 2.1-.9 2.3 1.7 2.3 4.7 0 10.8-2.6 17.5-7.4 8.8-6.3 92.5-90.7 96.8-97.6 3.1-5 3.4-6.1 3.4-13s-.3-8-3.4-13c-3.9-6.2-84.9-88.3-94.6-95.9-7.4-5.8-12.4-8.1-17.5-8.1-3.3 0-3.8.3-3.3 1.7z"/><path d="M507 157.5L454.5 210l52.8 52.8 52.7 52.7 52.7-52.7 52.8-52.8-52.5-52.5c-28.9-28.9-52.7-52.5-53-52.5-.3 0-24.1 23.6-53 52.5zm102.8 27.8l12.2 12.2-37.3 37.3-37.2 37.2-24.8-24.8-24.7-24.7 12.5-12.5 12.5-12.5 12.3 12.3 12.2 12.2 24.5-24.5c13.5-13.5 24.7-24.5 25-24.5.3 0 6 5.5 12.8 12.3zM431.7 232.6c-.3.3-.3 1.3 0 2.2.3 1 26 27.2 57.2 58.4l56.6 56.8-56.6 56.7c-31.2 31.3-57.2 57.8-57.8 59-1.1 2.1-.9 2.3 1.7 2.3 4.2 0 10.5-2.4 16-6.1 6.1-4.1 88.9-86.4 95.2-94.7 6.5-8.5 8.4-14.4 7.7-24.1-1.1-16 2.1-11.8-48.6-62.4l-45.6-45.5-7.4-1.6c-7.3-1.6-17.2-2.1-18.4-1zM151.7 234.7c.3 1 26 27.3 57.2 58.5l56.6 56.8-56.7 56.7c-31.2 31.3-56.8 57.7-57 58.8-.3 1.8.3 2 5 2.3 3 .2 8.8-.4 13-1.3l7.7-1.5 45.7-45.7 45.6-45.6 1.7-8.3c2.1-9.6 1.7-19.2-1-24.4-3.7-7.2-12.5-16.7-54.7-58.6-37.8-37.6-44.1-43.5-49.7-46.2-7.4-3.7-14.5-4.4-13.4-1.5z"/><path d="M87 297.5L34.5 350l52.8 52.8 52.7 52.7 52.7-52.7 52.8-52.8-52.5-52.5c-28.9-28.9-52.7-52.5-53-52.5-.3 0-24.1 23.6-53 52.5zm102.8 27.8l12.2 12.2-37.3 37.3-37.2 37.2-24.8-24.8L78 362.5 90.5 350l12.5-12.5 12.3 12.3 12.3 12.2 24.4-24.5c13.4-13.5 24.7-24.5 25-24.5.3 0 6 5.5 12.8 12.3zM367 297.5L314.5 350l52.8 52.8 52.7 52.7 52.7-52.7 52.8-52.8-52.5-52.5c-28.9-28.9-52.7-52.5-53-52.5-.3 0-24.1 23.6-53 52.5zM290.6 373.7c1 1.6 27.2 28.3 58.3 59.5l56.6 56.8-56.1 56.2c-30.9 31-56.7 57.3-57.3 58.5-1.1 2.2-1 2.3 2.2 2.3 4.8 0 9.4-1.8 15.7-6.1 7-4.8 91.6-89.7 96.2-96.5 4.8-7.1 6.2-12.9 5.5-21.7-.4-4-.8-7.9-1-8.7-.3-.8-.8-2.9-1.2-4.6-.5-2.3-12.1-14.5-46.3-48.7l-45.7-45.5-10.2-2.1c-5.6-1.2-12-2.1-14.3-2.1h-4l1.6 2.7z"/><path d="M227 437.5L174.5 490l52.8 52.8 52.7 52.7 52.7-52.7 52.8-52.8-52.5-52.5c-28.9-28.9-52.7-52.5-53-52.5-.3 0-24.1 23.6-53 52.5zm102.8 27.8l12.2 12.2-37.3 37.3-37.2 37.2-24.8-24.8-24.7-24.7 12.5-12.5 12.5-12.5 12.3 12.3 12.2 12.2 24.5-24.5c13.5-13.5 24.7-24.5 25-24.5.3 0 6 5.5 12.8 12.3z"/></svg>